0
SECTION
2
HEADER
9
$INSUNITS
70
4
9
$ACADVER
1
AC1014
9
$HANDSEED
5
FFFF
0
ENDSEC
0
SECTION
2
TABLES
0
TABLE
2
VPORT
5
8
100
AcDbSymbolTable
0
ENDTAB
0
TABLE
2
LTYPE
5
5
100
AcDbSymbolTable
0
LTYPE
5
14
100
AcDbSymbolTableRecord
100
AcDbLinetypeTableRecord
2
BYBLOCK
70
0
0
LTYPE
5
15
100
AcDbSymbolTableRecord
100
AcDbLinetypeTableRecord
2
BYLAYER
70
0
0
ENDTAB
0
TABLE
2
LAYER
5
2
100
AcDbSymbolTable
70
2
0
LAYER
5
50
100
AcDbSymbolTableRecord
100
AcDbLayerTableRecord
2
0
70
0
6
CONTINUOUS
0
ENDTAB
0
TABLE
2
STYLE
5
3
100
AcDbSymbolTable
70
1
0
STYLE
5
11
100
AcDbSymbolTableRecord
100
AcDbTextStyleTableRecord
2
STANDARD
70
0
0
ENDTAB
0
TABLE
2
VIEW
5
6
100
AcDbSymbolTable
70
0
0
ENDTAB
0
TABLE
2
UCS
5
7
100
AcDbSymbolTable
70
0
0
ENDTAB
0
TABLE
2
APPID
5
9
100
AcDbSymbolTable
70
2
0
APPID
5
12
100
AcDbSymbolTableRecord
100
AcDbRegAppTableRecord
2
ACAD
70
0
0
ENDTAB
0
TABLE
2
DIMSTYLE
5
A
100
AcDbSymbolTable
70
1
0
ENDTAB
0
TABLE
2
BLOCK_RECORD
5
1
100
AcDbSymbolTable
70
1
0
BLOCK_RECORD
5
1F
100
AcDbSymbolTableRecord
100
AcDbBlockTableRecord
2
*MODEL_SPACE
0
BLOCK_RECORD
5
1B
100
AcDbSymbolTableRecord
100
AcDbBlockTableRecord
2
*PAPER_SPACE
0
ENDTAB
0
ENDSEC
0
SECTION
2
BLOCKS
0
BLOCK
5
20
100
AcDbEntity
100
AcDbBlockBegin
2
*MODEL_SPACE
0
ENDBLK
5
21
100
AcDbEntity
100
AcDbBlockEnd
0
BLOCK
5
1C
100
AcDbEntity
100
AcDbBlockBegin
2
*PAPER_SPACE
0
ENDBLK
5
1D
100
AcDbEntity
100
AcDbBlockEnd
0
ENDSEC
0
SECTION
2
ENTITIES
0
LWPOLYLINE
5
100
100
AcDbEntity
8
0
100
AcDbPolyline
90
4
70
1
43
0.0
10
-4.2913498878479146
20
-108.40006890245093
42
-0.11974843536193205
10
-21.291349887847943
20
-108.40006890245094
10
-21.291349887847922
20
-100.41793060302734
10
-4.2913498878479173
20
-100.4179306030273
0
LWPOLYLINE
5
101
100
AcDbEntity
8
0
100
AcDbPolyline
90
4
70
1
43
0.0
10
22.190788411575205
20
-64.917930603027386
42
-0.11974843536192824
10
22.190788411575703
20
-81.917930603027258
10
14.208650112152084
20
-81.917930603027287
10
14.208650112152101
20
-64.917930603027287
0
LWPOLYLINE
5
102
100
AcDbEntity
8
0
100
AcDbPolyline
90
4
70
1
43
0.0
10
-47.773488187271937
20
-81.917930603027514
42
-0.11974843536192878
10
-47.773488187271511
20
-64.917930603027415
10
-39.791349887847886
20
-64.917930603027386
10
-39.7913498878479
20
-81.917930603027372
0
LWPOLYLINE
5
103
100
AcDbEntity
8
0
100
AcDbPolyline
90
4
70
1
43
0.0
10
-21.291349887847886
20
-38.435792303603648
42
-0.11974843536192507
10
-4.2913498878478764
20
-38.435792303603698
10
-4.2913498878478702
20
-46.417930603027322
10
-21.291349887847879
20
-46.417930603027351
0
LWPOLYLINE
5
104
100
AcDbEntity
8
0
100
AcDbPolyline
90
8
70
1
43
0.0
10
-36.791349887847872
20
-61.917930603027372
10
-36.791349887847879
20
-84.917930603027386
42
0.17091348264941433
10
-24.291349887847904
20
-97.417930603027315
10
-1.2913498878478991
20
-97.417930603027258
42
0.17091348264941467
10
11.208650112152066
20
-84.917930603027258
10
11.208650112152061
20
-61.917930603027251
42
0.17091348264940431
10
-1.291349887847888
20
-49.417930603027322
10
-24.2913498878479
20
-49.417930603027372
42
0.17091348264940601
0
CIRCLE
5
105
100
AcDbEntity
8
0
100
AcDbCircle
10
-12.79134988784797
20
-73.417930603028339
30
-2.8682827941648599e-44
40
40
0
CIRCLE
5
106
100
AcDbEntity
8
0
100
AcDbCircle
10
-12.7913498878479
20
-73.41793060302733
30
-2.7755575615628914e-16
40
40
0
CIRCLE
5
107
100
AcDbEntity
8
0
100
AcDbCircle
10
-12.7913498878479
20
-73.41793060302733
30
-2.7755575615628914e-16
40
40
0
LWPOLYLINE
5
108
100
AcDbEntity
8
0
100
AcDbPolyline
90
4
70
1
43
0.0
10
-4.2913498878479217
20
-108.40006890245098
42
-0.11974843536192857
10
-21.291349887847936
20
-108.40006890245094
10
-21.291349887847929
20
-100.41793060302734
10
-4.2913498878479199
20
-100.4179306030273
0
LWPOLYLINE
5
109
100
AcDbEntity
8
0
100
AcDbPolyline
90
4
70
1
43
0.0
10
22.190788411575681
20
-64.917930603027273
42
-0.11974843536192857
10
22.190788411575703
20
-81.917930603027273
10
14.208650112152084
20
-81.917930603027287
10
14.208650112152101
20
-64.917930603027273
0
LWPOLYLINE
5
110
100
AcDbEntity
8
0
100
AcDbPolyline
90
4
70
1
43
0.0
10
-47.773488187271482
20
-81.917930603027372
42
-0.11974843536192857
10
-47.773488187271496
20
-64.917930603027386
10
-39.791349887847886
20
-64.917930603027372
10
-39.791349887847907
20
-81.917930603027372
0
LWPOLYLINE
5
111
100
AcDbEntity
8
0
100
AcDbPolyline
90
4
70
1
43
0.0
10
-21.291349887847879
20
-38.435792303603691
42
-0.11974843536192857
10
-4.2913498878478595
20
-38.435792303603705
10
-4.2913498878478729
20
-46.417930603027322
10
-21.291349887847876
20
-46.417930603027351
0
LWPOLYLINE
5
112
100
AcDbEntity
8
0
100
AcDbPolyline
90
8
70
1
43
0.0
10
-36.791349887847893
20
-84.917930603027386
10
-36.791349887847879
20
-61.917930603027372
42
-0.17091348264941036
10
-24.291349887847893
20
-49.417930603027365
10
-1.2913498878478702
20
-49.417930603027301
42
-0.17091348264940937
10
11.208650112152096
20
-61.917930603027258
10
11.208650112152094
20
-84.917930603027287
42
-0.17091348264941036
10
-1.2913498878479013
20
-97.417930603027287
10
-24.291349887847929
20
-97.41793060302733
42
-0.17091348264940948
0
CIRCLE
5
113
100
AcDbEntity
8
0
100
AcDbCircle
10
-12.7913498878479
20
-73.41793060302733
30
-2.7755575615628914e-16
40
40
0
ENDSEC
0
SECTION
2
OBJECTS
0
DICTIONARY
5
C
100
AcDbDictionary
3
ACAD_GROUP
350
D
3
ACAD_MLINESTYLE
350
17
0
DICTIONARY
5
D
100
AcDbDictionary
0
DICTIONARY
5
1A
330
C
100
AcDbDictionary
0
DICTIONARY
5
17
100
AcDbDictionary
0
ENDSEC
0
EOF
